<mxfile host="app.diagrams.net" agent="Mozilla/5.0 (Macintosh; Intel Mac OS X 10_15_7) AppleWebKit/537.36 (KHTML, like Gecko) Chrome/134.0.0.0 Safari/537.36" version="25.0.3">
  <diagram name="Page-1" id="zuPUU0OpeL9GdnqZ9F3x">
    <mxGraphModel dx="2440" dy="1065" grid="1" gridSize="10" guides="1" tooltips="1" connect="1" arrows="1" fold="1" page="1" pageScale="1" pageWidth="850" pageHeight="1100" math="0" shadow="0">
      <root>
        <mxCell id="0" />
        <mxCell id="1" parent="0" />
        <mxCell id="CNbhrjDW77QD4BOa9Se6-47" value="" style="rounded=0;whiteSpace=wrap;html=1;" vertex="1" parent="1">
          <mxGeometry x="70" y="950" width="430" height="740" as="geometry" />
        </mxCell>
        <mxCell id="CNbhrjDW77QD4BOa9Se6-1" value="PSAs" style="swimlane;whiteSpace=wrap;html=1;" vertex="1" parent="1">
          <mxGeometry x="420" y="60" width="200" height="200" as="geometry" />
        </mxCell>
        <mxCell id="CNbhrjDW77QD4BOa9Se6-4" value="Replace Place holder details:&amp;nbsp;&lt;div&gt;&lt;ul&gt;&lt;li&gt;User Name&lt;/li&gt;&lt;li&gt;Address&lt;/li&gt;&lt;li&gt;Time line&amp;nbsp;&lt;/li&gt;&lt;li&gt;Purchase price&amp;nbsp;&lt;/li&gt;&lt;li&gt;Other Details&amp;nbsp;&lt;/li&gt;&lt;/ul&gt;&lt;/div&gt;" style="text;html=1;align=left;verticalAlign=middle;resizable=0;points=[];autosize=1;strokeColor=none;fillColor=none;" vertex="1" parent="CNbhrjDW77QD4BOa9Se6-1">
          <mxGeometry x="5" y="40" width="180" height="120" as="geometry" />
        </mxCell>
        <mxCell id="CNbhrjDW77QD4BOa9Se6-5" style="edgeStyle=orthogonalEdgeStyle;rounded=0;orthogonalLoop=1;jettySize=auto;html=1;exitX=1;exitY=0.5;exitDx=0;exitDy=0;entryX=0;entryY=0.5;entryDx=0;entryDy=0;" edge="1" parent="1" source="CNbhrjDW77QD4BOa9Se6-2" target="CNbhrjDW77QD4BOa9Se6-1">
          <mxGeometry relative="1" as="geometry" />
        </mxCell>
        <mxCell id="CNbhrjDW77QD4BOa9Se6-2" value="LOIs" style="swimlane;whiteSpace=wrap;html=1;" vertex="1" parent="1">
          <mxGeometry x="80" y="60" width="240" height="200" as="geometry" />
        </mxCell>
        <mxCell id="CNbhrjDW77QD4BOa9Se6-3" value="Extract detail&amp;nbsp;&lt;div&gt;&lt;ul&gt;&lt;li&gt;User Name&lt;/li&gt;&lt;li&gt;Address&lt;/li&gt;&lt;li&gt;Time line&amp;nbsp;&lt;/li&gt;&lt;li&gt;Purchase price&amp;nbsp;&lt;/li&gt;&lt;li&gt;Other Details&amp;nbsp;&lt;/li&gt;&lt;/ul&gt;&lt;/div&gt;" style="text;html=1;align=left;verticalAlign=middle;resizable=0;points=[];autosize=1;strokeColor=none;fillColor=none;" vertex="1" parent="CNbhrjDW77QD4BOa9Se6-2">
          <mxGeometry y="40" width="150" height="120" as="geometry" />
        </mxCell>
        <mxCell id="CNbhrjDW77QD4BOa9Se6-11" value="&lt;h1 style=&quot;margin-top: 0px;&quot;&gt;Technique 1&lt;/h1&gt;&lt;p&gt;&lt;br&gt;&lt;/p&gt;" style="text;html=1;whiteSpace=wrap;overflow=hidden;rounded=0;" vertex="1" parent="1">
          <mxGeometry x="-90" width="150" height="40" as="geometry" />
        </mxCell>
        <mxCell id="CNbhrjDW77QD4BOa9Se6-12" value="&lt;h1 style=&quot;margin-top: 0px;&quot;&gt;Technique 2&lt;/h1&gt;&lt;p&gt;&lt;br&gt;&lt;/p&gt;" style="text;html=1;whiteSpace=wrap;overflow=hidden;rounded=0;" vertex="1" parent="1">
          <mxGeometry x="-90" y="360" width="160" height="50" as="geometry" />
        </mxCell>
        <mxCell id="CNbhrjDW77QD4BOa9Se6-13" value="10 LOIs&amp;nbsp;" style="rounded=0;whiteSpace=wrap;html=1;" vertex="1" parent="1">
          <mxGeometry x="82" y="460" width="120" height="60" as="geometry" />
        </mxCell>
        <mxCell id="CNbhrjDW77QD4BOa9Se6-14" value="Fine Tune OpenAi GPT&lt;div&gt;Model&lt;/div&gt;" style="whiteSpace=wrap;html=1;aspect=fixed;" vertex="1" parent="1">
          <mxGeometry x="332" y="460" width="150" height="150" as="geometry" />
        </mxCell>
        <mxCell id="CNbhrjDW77QD4BOa9Se6-17" style="edgeStyle=orthogonalEdgeStyle;rounded=0;orthogonalLoop=1;jettySize=auto;html=1;entryX=0;entryY=0.5;entryDx=0;entryDy=0;" edge="1" parent="1" source="CNbhrjDW77QD4BOa9Se6-15" target="CNbhrjDW77QD4BOa9Se6-14">
          <mxGeometry relative="1" as="geometry" />
        </mxCell>
        <mxCell id="CNbhrjDW77QD4BOa9Se6-15" value="10 PSAs" style="rounded=0;whiteSpace=wrap;html=1;" vertex="1" parent="1">
          <mxGeometry x="82" y="540" width="120" height="60" as="geometry" />
        </mxCell>
        <mxCell id="CNbhrjDW77QD4BOa9Se6-16" style="edgeStyle=orthogonalEdgeStyle;rounded=0;orthogonalLoop=1;jettySize=auto;html=1;entryX=-0.021;entryY=0.321;entryDx=0;entryDy=0;entryPerimeter=0;" edge="1" parent="1" source="CNbhrjDW77QD4BOa9Se6-13" target="CNbhrjDW77QD4BOa9Se6-14">
          <mxGeometry relative="1" as="geometry" />
        </mxCell>
        <mxCell id="CNbhrjDW77QD4BOa9Se6-19" style="edgeStyle=orthogonalEdgeStyle;rounded=0;orthogonalLoop=1;jettySize=auto;html=1;entryX=0.25;entryY=1;entryDx=0;entryDy=0;" edge="1" parent="1" source="CNbhrjDW77QD4BOa9Se6-18" target="CNbhrjDW77QD4BOa9Se6-14">
          <mxGeometry relative="1" as="geometry" />
        </mxCell>
        <mxCell id="CNbhrjDW77QD4BOa9Se6-18" value="Open Ai Play ground" style="rounded=0;whiteSpace=wrap;html=1;" vertex="1" parent="1">
          <mxGeometry x="302" y="720" width="210" height="50" as="geometry" />
        </mxCell>
        <mxCell id="CNbhrjDW77QD4BOa9Se6-20" value="" style="shape=actor;whiteSpace=wrap;html=1;" vertex="1" parent="1">
          <mxGeometry x="387" y="780" width="40" height="60" as="geometry" />
        </mxCell>
        <mxCell id="CNbhrjDW77QD4BOa9Se6-21" value="Upload LOI" style="text;html=1;align=center;verticalAlign=middle;whiteSpace=wrap;rounded=0;" vertex="1" parent="1">
          <mxGeometry x="312" y="640" width="60" height="30" as="geometry" />
        </mxCell>
        <mxCell id="CNbhrjDW77QD4BOa9Se6-22" style="edgeStyle=orthogonalEdgeStyle;rounded=0;orthogonalLoop=1;jettySize=auto;html=1;entryX=0.671;entryY=-0.08;entryDx=0;entryDy=0;entryPerimeter=0;" edge="1" parent="1" source="CNbhrjDW77QD4BOa9Se6-14" target="CNbhrjDW77QD4BOa9Se6-18">
          <mxGeometry relative="1" as="geometry">
            <Array as="points">
              <mxPoint x="432" y="665" />
              <mxPoint x="443" y="665" />
            </Array>
          </mxGeometry>
        </mxCell>
        <mxCell id="CNbhrjDW77QD4BOa9Se6-23" value="Download PSAs" style="text;html=1;align=center;verticalAlign=middle;whiteSpace=wrap;rounded=0;" vertex="1" parent="1">
          <mxGeometry x="442" y="640" width="60" height="30" as="geometry" />
        </mxCell>
        <mxCell id="CNbhrjDW77QD4BOa9Se6-24" value="&lt;h1 style=&quot;margin-top: 0px;&quot;&gt;Technique 2&lt;/h1&gt;&lt;p&gt;&lt;br&gt;&lt;/p&gt;" style="text;html=1;whiteSpace=wrap;overflow=hidden;rounded=0;" vertex="1" parent="1">
          <mxGeometry x="-70" y="880" width="160" height="50" as="geometry" />
        </mxCell>
        <mxCell id="CNbhrjDW77QD4BOa9Se6-36" value="LOIs" style="swimlane;whiteSpace=wrap;html=1;" vertex="1" parent="1">
          <mxGeometry x="102" y="980" width="240" height="200" as="geometry" />
        </mxCell>
        <mxCell id="CNbhrjDW77QD4BOa9Se6-37" value="Extract detail&amp;nbsp;&lt;div&gt;&lt;ul&gt;&lt;li&gt;User Name&lt;/li&gt;&lt;li&gt;Address&lt;/li&gt;&lt;li&gt;Time line&amp;nbsp;&lt;/li&gt;&lt;li&gt;Purchase price&amp;nbsp;&lt;/li&gt;&lt;li&gt;Other Details&amp;nbsp;&lt;/li&gt;&lt;/ul&gt;&lt;/div&gt;" style="text;html=1;align=left;verticalAlign=middle;resizable=0;points=[];autosize=1;strokeColor=none;fillColor=none;" vertex="1" parent="CNbhrjDW77QD4BOa9Se6-36">
          <mxGeometry y="40" width="150" height="120" as="geometry" />
        </mxCell>
        <mxCell id="CNbhrjDW77QD4BOa9Se6-38" value="PSA File" style="swimlane;whiteSpace=wrap;html=1;" vertex="1" parent="1">
          <mxGeometry x="102" y="1230" width="240" height="200" as="geometry" />
        </mxCell>
        <mxCell id="CNbhrjDW77QD4BOa9Se6-39" value="Extract Section&lt;div&gt;(token size 3000)&lt;/div&gt;" style="text;html=1;align=left;verticalAlign=middle;resizable=0;points=[];autosize=1;strokeColor=none;fillColor=none;" vertex="1" parent="CNbhrjDW77QD4BOa9Se6-38">
          <mxGeometry x="43" y="80" width="120" height="40" as="geometry" />
        </mxCell>
        <mxCell id="CNbhrjDW77QD4BOa9Se6-49" style="edgeStyle=orthogonalEdgeStyle;rounded=0;orthogonalLoop=1;jettySize=auto;html=1;entryX=1;entryY=0.5;entryDx=0;entryDy=0;" edge="1" parent="1" source="CNbhrjDW77QD4BOa9Se6-40" target="CNbhrjDW77QD4BOa9Se6-48">
          <mxGeometry relative="1" as="geometry">
            <Array as="points">
              <mxPoint x="650" y="1610" />
            </Array>
          </mxGeometry>
        </mxCell>
        <mxCell id="CNbhrjDW77QD4BOa9Se6-40" value="ChatGpt/LLM" style="whiteSpace=wrap;html=1;aspect=fixed;" vertex="1" parent="1">
          <mxGeometry x="592" y="1070" width="140" height="140" as="geometry" />
        </mxCell>
        <mxCell id="CNbhrjDW77QD4BOa9Se6-42" style="edgeStyle=orthogonalEdgeStyle;rounded=0;orthogonalLoop=1;jettySize=auto;html=1;entryX=0;entryY=0.5;entryDx=0;entryDy=0;" edge="1" parent="1" target="CNbhrjDW77QD4BOa9Se6-40">
          <mxGeometry relative="1" as="geometry">
            <mxPoint x="290" y="1341" as="sourcePoint" />
            <mxPoint x="558.8200000000002" y="1130" as="targetPoint" />
          </mxGeometry>
        </mxCell>
        <mxCell id="CNbhrjDW77QD4BOa9Se6-43" style="edgeStyle=orthogonalEdgeStyle;rounded=0;orthogonalLoop=1;jettySize=auto;html=1;" edge="1" parent="1" source="CNbhrjDW77QD4BOa9Se6-37" target="CNbhrjDW77QD4BOa9Se6-40">
          <mxGeometry relative="1" as="geometry" />
        </mxCell>
        <mxCell id="CNbhrjDW77QD4BOa9Se6-45" style="edgeStyle=orthogonalEdgeStyle;rounded=0;orthogonalLoop=1;jettySize=auto;html=1;entryX=0;entryY=0.5;entryDx=0;entryDy=0;" edge="1" parent="1" source="CNbhrjDW77QD4BOa9Se6-44" target="CNbhrjDW77QD4BOa9Se6-40">
          <mxGeometry relative="1" as="geometry" />
        </mxCell>
        <mxCell id="CNbhrjDW77QD4BOa9Se6-44" value="Prompt to replace extracted details from loi in extracted Sections of PSA" style="rounded=0;whiteSpace=wrap;html=1;" vertex="1" parent="1">
          <mxGeometry x="102" y="1470" width="238" height="60" as="geometry" />
        </mxCell>
        <mxCell id="CNbhrjDW77QD4BOa9Se6-48" value="Get updated section and replace in PSA file and go for next section" style="rounded=0;whiteSpace=wrap;html=1;" vertex="1" parent="1">
          <mxGeometry x="100" y="1580" width="250" height="60" as="geometry" />
        </mxCell>
      </root>
    </mxGraphModel>
  </diagram>
</mxfile>
